<svg width="24" height="24" viewBox="0 0 24 24" fill="none" xmlns="http://www.w3.org/2000/svg">
<path d="M18.75 15.125L17.5 14.4062L18.5938 14.0938C18.8438 14.0312 19 13.75 18.9375 13.5L18.8125 13C18.7188 12.75 18.4688 12.5938 18.1875 12.6562L15.7188 13.3438L13.4688 12L15.7188 10.6875L18.1875 11.375C18.4688 11.4375 18.7188 11.2812 18.8125 11.0312L18.9375 10.5312C19 10.2812 18.8438 10 18.5938 9.9375L17.5312 9.625L18.75 8.90625C18.9688 8.78125 19.0625 8.46875 18.9375 8.21875L18.6875 7.78125C18.5312 7.5625 18.25 7.46875 18 7.625L16.7812 8.34375L17.0625 7.25C17.125 6.96875 16.9688 6.71875 16.7188 6.625L16.25 6.5C15.9688 6.4375 15.7188 6.59375 15.625 6.84375L14.9688 9.375L12.7188 10.7188V8.0625L14.5625 6.21875C14.75 6.03125 14.75 5.6875 14.5625 5.5L14.1875 5.15625C14 4.96875 13.6875 4.96875 13.5 5.15625L12.7188 5.9375V4.5C12.7188 4.25 12.5 4 12.25 4H11.75C11.4688 4 11.25 4.25 11.25 4.5V5.96875L10.4688 5.15625C10.2812 4.96875 9.96875 4.96875 9.78125 5.15625L9.4375 5.5C9.25 5.71875 9.25 6.03125 9.4375 6.21875L11.25 8.0625V10.7188L9 9.40625L8.34375 6.875C8.28125 6.59375 8 6.4375 7.71875 6.5L7.25 6.625C7 6.71875 6.84375 7 6.90625 7.25L7.1875 8.34375L5.96875 7.625C5.75 7.46875 5.4375 7.5625 5.3125 7.8125L5.0625 8.25C4.90625 8.46875 5 8.78125 5.21875 8.90625L6.46875 9.625L5.40625 9.9375C5.125 10 4.96875 10.2812 5.03125 10.5312L5.1875 11.0312C5.25 11.2812 5.5 11.4375 5.78125 11.375L8.28125 10.6875L10.5 12L8.28125 13.3438L5.78125 12.6562C5.5 12.5938 5.25 12.75 5.1875 13L5.03125 13.5C4.96875 13.75 5.125 14.0312 5.40625 14.0938L6.46875 14.4062L5.21875 15.125C5 15.25 4.90625 15.5625 5.0625 15.8125L5.3125 16.2188C5.4375 16.4688 5.75 16.5625 5.96875 16.4062L7.1875 15.6875L6.90625 16.7812C6.84375 17.0625 7 17.3125 7.25 17.4062L7.71875 17.5312C8 17.5938 8.25 17.4375 8.34375 17.1562L9 14.625L11.25 13.3125V15.9688L9.4375 17.8125C9.25 18 9.25 18.3125 9.4375 18.5312L9.78125 18.875C9.96875 19.0625 10.2812 19.0625 10.4688 18.875L11.25 18.0938V19.5C11.25 19.7812 11.4688 20 11.75 20H12.2188C12.5 20 12.7188 19.7812 12.7188 19.5V18.0625L13.5 18.875C13.6875 19.0625 14 19.0625 14.1875 18.875L14.5312 18.5C14.7188 18.3125 14.7188 18 14.5312 17.8125L12.7188 15.9688V13.3125L14.9688 14.625L15.625 17.1562C15.6875 17.4375 15.9688 17.5938 16.2188 17.5312L16.7188 17.375C16.9688 17.3125 17.125 17.0312 17.0625 16.7812L16.7812 15.6875L18 16.4062C18.2188 16.5625 18.5312 16.4688 18.6562 16.2188L18.9062 15.7812C19.0625 15.5625 18.9688 15.25 18.75 15.125Z" fill="#3554D1"/>
</svg>
