<svg width="24" height="24" viewBox="0 0 24 24" fill="none" xmlns="http://www.w3.org/2000/svg">
<path d="M20.3438 16.9688L19.4062 17.3125L18.1562 14.0938C19.75 13.0625 20.3438 10.9688 19.4062 9.28125L16.7812 4.53125C16.5938 4.21875 16.25 4 15.9062 4C15.7812 4 15.6562 4.03125 15.5312 4.09375L12 5.46875L8.4375 4.09375C8.3125 4.03125 8.1875 4 8.0625 4C7.71875 4 7.375 4.21875 7.1875 4.53125L4.5625 9.28125C3.625 10.9688 4.21875 13.0625 5.8125 14.0938L4.5625 17.3125L3.625 16.9688C2.96875 16.6875 2.25 17.0312 2 17.6562C1.9375 17.7812 2 17.9375 2.15625 18L7.25 20C7.375 20.0625 7.53125 20 7.59375 19.8438C7.84375 19.2188 7.53125 18.5 6.875 18.25L5.9375 17.875L7.21875 14.6562C7.46875 14.7188 7.71875 14.75 7.9375 14.75C9.59375 14.75 11.0938 13.6875 11.5312 12.0312L11.9688 10.1562L12.4375 12.0312C12.8438 13.6875 14.375 14.75 16 14.75C16.25 14.75 16.5 14.7188 16.75 14.6562L18 17.875L17.0938 18.2188C16.4375 18.5 16.125 19.2188 16.375 19.8438C16.4375 19.9688 16.5625 20.0312 16.6875 20L21.8125 17.9688C21.9688 17.9375 22.0312 17.7812 21.9688 17.6562C21.7188 17.0312 21 16.6875 20.3438 16.9688ZM10.0625 11.6562C9.84375 12.5938 8.96875 13.25 7.96875 13.25C7.65625 13.25 7.375 13.1875 7.09375 13.0938C6.46875 12.8438 5.96875 12.3438 5.75 11.7188C5.53125 11.1562 5.59375 10.5312 5.875 10L6.65625 8.59375L10.4688 10.0938L10.0625 11.6562ZM10.8125 8.625L7.40625 7.28125L8.28125 5.625L11.2812 6.8125L10.8125 8.625ZM13.1562 8.625L12.6875 6.8125L15.6875 5.625L16.5938 7.28125L13.1562 8.625ZM16.875 13.0938C16.5938 13.1875 16.3125 13.25 16.0312 13.25C15 13.25 14.125 12.5938 13.9062 11.6562L13.5 10.0938L17.3125 8.59375L18.0938 10C18.375 10.5312 18.4375 11.125 18.2188 11.7188C18 12.3438 17.5 12.8438 16.875 13.0938Z" fill="#3554D1"/>
</svg>
