<svg width="24" height="24" viewBox="0 0 24 24" fill="none" xmlns="http://www.w3.org/2000/svg">
<path d="M6.75 11H8.0625L7.8125 12.7188C7.75 12.875 7.90625 13 8.0625 13C8.15625 13 8.25 12.9688 8.28125 12.9062L10.375 9.78125C10.5 9.625 10.375 9.4375 10.1562 9.4375H8.875L9.125 8.3125C9.15625 8.15625 9.03125 8.03125 8.875 8.03125H7.34375C7.21875 8.03125 7.09375 8.09375 7.09375 8.21875L6.5 10.75C6.46875 10.9062 6.59375 11 6.75 11ZM20.5 8H20V6.5C20 6.25 19.75 6 19.5 6C19.2188 6 19 6.25 19 6.5V8H18V6.5C18 6.25 17.75 6 17.5 6C17.2188 6 17 6.25 17 6.5V8H16.5C16.2188 8 16 8.25 16 8.5V10C16 11.125 16.7188 12.0625 17.75 12.375V15.625C17.75 16.125 17.3438 16.5 16.875 16.5C16.375 16.5 16 16.125 16 15.625V14.75C16 13.25 14.75 12 13.25 12H13V5.5C13 4.6875 12.3125 4 11.5 4H5.5C4.65625 4 4 4.6875 4 5.5V18.5H3.25C3.09375 18.5 3 18.625 3 18.75V19.75C3 19.9062 3.09375 20 3.25 20H13.75C13.875 20 14 19.9062 14 19.75V18.75C14 18.625 13.875 18.5 13.75 18.5H13V13.5H13.25C13.9375 13.5 14.5 14.0625 14.5 14.75V15.625C14.5 16.9375 15.5625 18 16.875 18C18.1562 18 19.25 16.9375 19.25 15.625V12.375C20.25 12.0625 21 11.125 21 10V8.5C21 8.25 20.75 8 20.5 8ZM11.5 18.5H5.5V5.5H11.5V18.5ZM19.5 10C19.5 10.5625 19.0312 11 18.5 11C17.9375 11 17.5 10.5625 17.5 10V9.5H19.5V10Z" fill="#3554D1"/>
</svg>
