<svg width="24" height="24" viewBox="0 0 24 24" fill="none" xmlns="http://www.w3.org/2000/svg">
<path d="M19 11C20.375 11 21.5 9.90625 21.5 8.5C21.5 7.125 20.375 6 19 6C17.5938 6 16.5 7.125 16.5 8.5C16.5 9.90625 17.5938 11 19 11ZM19 7.5C19.5312 7.5 20 7.96875 20 8.5C20 9.0625 19.5312 9.5 19 9.5C18.4375 9.5 18 9.0625 18 8.5C18 7.96875 18.4375 7.5 19 7.5ZM5 11C6.375 11 7.5 9.90625 7.5 8.5C7.5 7.125 6.375 6 5 6C3.59375 6 2.5 7.125 2.5 8.5C2.5 9.90625 3.59375 11 5 11ZM5 7.5C5.53125 7.5 6 7.96875 6 8.5C6 9.0625 5.53125 9.5 5 9.5C4.4375 9.5 4 9.0625 4 8.5C4 7.96875 4.4375 7.5 5 7.5ZM17.375 14.0938C16.5 12.8438 14.8438 12.3438 13.375 12.8125C12.9375 12.9375 12.4688 13 11.9688 13C11.5 13 11.0312 12.9375 10.5938 12.8125C9.125 12.3438 7.4375 12.8125 6.59375 14.0938C6.21875 14.6875 5.96875 15.375 5.96875 16.125V17.5C5.96875 18.3438 6.65625 19 7.46875 19H16.4688C17.3125 19 17.9688 18.3438 17.9688 17.5V16.125C18 15.375 17.75 14.6875 17.375 14.0938ZM16.5 17.5H7.5V16.125C7.5 14.9688 8.40625 14.0312 9.53125 14C10.3125 14.3438 11.1562 14.5 12 14.5C12.8125 14.5 13.6562 14.3438 14.4375 14C15.5625 14.0312 16.5 14.9688 16.5 16.125V17.5ZM19.375 12H18.625C18.0625 12 17.5625 12.1875 17.1562 12.4688C17.5625 12.7812 17.9375 13.1562 18.2188 13.5938C18.3438 13.5625 18.4688 13.5 18.5938 13.5H19.3438C19.9688 13.5 20.4688 14.0312 20.4688 14.625C20.4688 15.0625 20.8125 15.375 21.2188 15.375C21.6562 15.375 21.9688 15.0625 21.9688 14.625C22 13.1875 20.8125 12 19.375 12ZM12 12C13.9062 12 15.5 10.4375 15.5 8.5C15.5 6.59375 13.9062 5 12 5C10.0625 5 8.5 6.59375 8.5 8.5C8.5 10.4375 10.0625 12 12 12ZM12 6.5C13.0938 6.5 14 7.40625 14 8.5C14 9.625 13.0938 10.5 12 10.5C10.875 10.5 10 9.625 10 8.5C10 7.40625 10.875 6.5 12 6.5ZM6.8125 12.4688C6.40625 12.1875 5.90625 12 5.375 12H4.625C3.15625 12 2 13.1875 2 14.625C2 15.0625 2.3125 15.375 2.75 15.375C3.15625 15.375 3.5 15.0625 3.5 14.625C3.5 14.0312 4 13.5 4.625 13.5H5.375C5.5 13.5 5.625 13.5625 5.75 13.5938C6.03125 13.1562 6.40625 12.7812 6.8125 12.4688Z" fill="#3554D1"/>
</svg>
