<svg width="24" height="24" viewBox="0 0 24 24" fill="none" xmlns="http://www.w3.org/2000/svg">
<path d="M19.4688 13H18C15.9062 13 14.0312 13.9375 12.75 15.4062V13C15.0938 12.9688 17 11.0625 17 8.71875V4.5C16.9688 4.25 16.75 4.03125 16.5 4.03125C16.375 4.03125 16.2812 4.0625 16.1875 4.125L13.875 5.78125L12.375 4.1875C12.2812 4.09375 12.125 4 11.9688 4C11.8438 4 11.6875 4.09375 11.5938 4.1875L10.0938 5.78125L7.78125 4.125C7.6875 4.0625 7.59375 4.03125 7.5 4.03125C7.21875 4.03125 7 4.25 7 4.5V8.71875C7 11.0625 8.875 12.9688 11.25 13V15.4062C9.9375 13.9375 8.0625 13 5.96875 13H4.5C4.1875 13 3.96875 13.2812 4 13.625C4.3125 17.2188 7.3125 20 10.9688 20H13C16.6562 20 19.6562 17.2188 19.9688 13.625C20 13.2812 19.7812 13 19.4688 13ZM8.5 8.71875V6.46875L10.25 7.75L12 6L13.75 7.75L15.5 6.46875V8.71875C15.5 10.25 14.2188 11.5 12.6875 11.5H11.2812C9.75 11.5 8.5 10.25 8.5 8.71875ZM10.9688 18.5C8.5 18.5 6.34375 16.8125 5.65625 14.5C8.03125 14.5 9.6875 15.5312 10.6875 17.1875L11.5 18.5H10.9688ZM13 18.5H12.4688L13.2812 17.1875C14.2812 15.5312 15.9375 14.5 18.3125 14.5C17.625 16.8125 15.4688 18.5 13 18.5Z" fill="#3554D1"/>
</svg>
