<svg width="32" height="32" viewBox="0 0 32 32" fill="none" xmlns="http://www.w3.org/2000/svg">
<path d="M9.7 30.0002H25C27.3 30.0002 29.1 28.2002 29.1 25.9002C29.1 24.2002 28 22.6002 26.3 22.0002L11.9 17.0002C7.5 15.6002 3 18.8002 3 23.3002C3 27.0002 6 30.0002 9.7 30.0002Z" stroke="#3554D1" stroke-width="2" stroke-miterlimit="10" stroke-linecap="round" stroke-linejoin="round"/>
<path d="M14 27C15.6569 27 17 25.6569 17 24C17 22.3431 15.6569 21 14 21C12.3431 21 11 22.3431 11 24C11 25.6569 12.3431 27 14 27Z" stroke="#3554D1" stroke-width="2" stroke-miterlimit="10" stroke-linecap="round" stroke-linejoin="round"/>
<path d="M12 9H8.8C7 9 5.3 8.3 4 7" stroke="#3554D1" stroke-width="2" stroke-miterlimit="10" stroke-linecap="round" stroke-linejoin="round"/>
<path d="M9 9L13 17" stroke="#3554D1" stroke-width="2" stroke-miterlimit="10" stroke-linecap="round" stroke-linejoin="round"/>
<path d="M26 4L22 20" stroke="#3554D1" stroke-width="2" stroke-miterlimit="10" stroke-linecap="round" stroke-linejoin="round"/>
<path d="M21 5C24.1 5 27.1 3.5 29 1" stroke="#3554D1" stroke-width="2" stroke-miterlimit="10" stroke-linecap="round" stroke-linejoin="round"/>
<path d="M14 24H20" stroke="#3554D1" stroke-width="2" stroke-miterlimit="10" stroke-linecap="round" stroke-linejoin="round"/>
</svg>
