<svg width="24" height="24" viewBox="0 0 24 24" fill="none" xmlns="http://www.w3.org/2000/svg">
<path d="M17.5 10.5625C17.5312 10.8125 17.75 11 18 11H18.5C18.7812 11 19 10.75 18.9688 10.4375C18.8438 9.21875 18.2812 8.125 17.4375 7.40625C16.9062 6.96875 16.5625 6.25 16.4688 5.46875C16.4375 5.21875 16.2188 5 15.9688 5H15.4688C15.1875 5 14.9688 5.28125 15 5.59375C15.125 6.8125 15.6875 7.90625 16.5312 8.625C17.0625 9.0625 17.4062 9.78125 17.5 10.5625ZM14.5 10.5625C14.5312 10.8125 14.75 11 15 11H15.5C15.7812 11 16 10.75 15.9688 10.4375C15.8438 9.21875 15.2812 8.125 14.4375 7.40625C13.9062 6.96875 13.5625 6.25 13.4688 5.46875C13.4375 5.21875 13.2188 5 12.9688 5H12.4688C12.1875 5 11.9688 5.28125 12 5.59375C12.125 6.8125 12.6875 7.90625 13.5312 8.625C14.0625 9.0625 14.4062 9.78125 14.5 10.5625ZM19 13H13L9.53125 10.4062C9.1875 10.1562 8.78125 10 8.3125 10H6C4.875 10 4 10.9062 4 12V18C4 19.125 4.875 20 6 20H18C19.0938 20 20 19.125 20 18V14C20 13.4688 19.5312 13 19 13ZM5.5 12C5.5 11.75 5.71875 11.5 6 11.5H8.3125C8.4375 11.5 8.53125 11.5625 8.625 11.625L10.5 13H5.5V12ZM7.5 18.5H6C5.71875 18.5 5.5 18.2812 5.5 18V14.5H7.5V18.5ZM11.25 18.5H9V14.5H11.25V18.5ZM15 18.5H12.75V14.5H15V18.5ZM18.5 18C18.5 18.2812 18.25 18.5 18 18.5H16.5V14.5H18.5V18ZM7 9C8.375 9 9.5 7.90625 9.5 6.5C9.5 5.125 8.375 4 7 4C5.59375 4 4.5 5.125 4.5 6.5C4.5 7.90625 5.59375 9 7 9ZM7 5.5C7.53125 5.5 8 5.96875 8 6.5C8 7.0625 7.53125 7.5 7 7.5C6.4375 7.5 6 7.0625 6 6.5C6 5.96875 6.4375 5.5 7 5.5Z" fill="#3554D1"/>
</svg>
