<svg width="20" height="20" viewBox="0 0 20 20" fill="none" xmlns="http://www.w3.org/2000/svg">
<g clip-path="url(#clip0_797_2523)">
<path d="M1.00016 0H6.66673C6.85006 0 7.00006 0.149997 7.00006 0.333328C7.00006 0.516658 6.85006 0.666656 6.66673 0.666656H1.00016C0.81683 0.666656 0.666832 0.816653 0.666832 0.999983V1.33331H5.66675C5.85008 1.33331 6.00008 1.48331 6.00008 1.66664C6.00008 1.84997 5.85008 1.99997 5.66675 1.99997H0.666832V4.33326H5.00009C5.18342 4.33326 5.33342 4.48326 5.33342 4.66659C5.33342 4.84992 5.18342 4.99992 5.00009 4.99992H0.666832V5.33324C0.666832 5.51657 0.81683 5.66657 1.00016 5.66657H5.33342C5.51675 5.66657 5.66675 5.81657 5.66675 5.9999C5.66675 6.18323 5.51675 6.33323 5.33342 6.33323H1.24182L0.795996 7.66654H1.00016H8.4042C6.99173 7.04988 6.00008 5.63741 6.00008 3.99993C6.00008 1.7958 7.79588 0 10 0C12.2041 0 13.9999 1.7958 13.9999 3.99993C13.9999 5.63741 13.0083 7.04988 11.5958 7.66654H18.9999H19.204L18.7582 6.33323H14.3333C14.1499 6.33323 13.9999 6.18323 13.9999 5.9999C13.9999 5.81657 14.1499 5.66657 14.3333 5.66657H18.9999C19.1832 5.66657 19.3332 5.51657 19.3332 5.33324V4.99992H14.9999C14.8166 4.99992 14.6666 4.84992 14.6666 4.66659C14.6666 4.48326 14.8166 4.33326 14.9999 4.33326H19.3332V1.99997H14.3333C14.1499 1.99997 13.9999 1.84997 13.9999 1.66664C13.9999 1.48331 14.1499 1.33331 14.3333 1.33331H19.3332V0.999983C19.3332 0.816653 19.1832 0.666656 18.9999 0.666656H13C12.8166 0.666656 12.6666 0.516658 12.6666 0.333328C12.6666 0.149997 12.8166 0 13 0H18.9999C19.5498 0 19.9998 0.449993 19.9998 0.999983V1.66664V4.66659V5.33324C19.9998 5.72907 19.7665 6.07073 19.429 6.23323L19.9832 7.8957C20.0165 7.9957 19.9998 8.1082 19.9373 8.1957C19.8748 8.28319 19.7748 8.33319 19.6665 8.33319H19.3332V18.0622C19.7207 18.1997 19.9998 18.5664 19.9998 18.9997V19.6663C19.9998 19.8497 19.8498 19.9997 19.6665 19.9997H0.333504C0.150173 19.9997 0.000175476 19.8497 0.000175476 19.6663V18.9997C0.000175476 18.5664 0.279339 18.1997 0.666832 18.0622V8.33319H0.333504C0.225172 8.33319 0.125174 8.28319 0.0626755 8.1957C0.000175476 8.1082 -0.0164909 7.9957 0.0168419 7.8957L0.571001 6.23323C0.233505 6.07073 0.000175476 5.72907 0.000175476 5.33324V4.66659V1.66664V0.999983C0.000175476 0.449993 0.450169 0 1.00016 0ZM13.3333 3.99993C13.3333 2.16246 11.8375 0.666656 10 0.666656C8.16254 0.666656 6.66673 2.16246 6.66673 3.99993C6.66673 5.8374 8.16254 7.33321 10 7.33321C11.8375 7.33321 13.3333 5.8374 13.3333 3.99993ZM18.6665 8.33319H1.33349V17.9997H8.00004V15.6664V14.3331V9.33318C8.00004 9.14985 8.15004 8.99985 8.33337 8.99985H11.6666C11.85 8.99985 12 9.14985 12 9.33318V14.3331V15.6664V17.9997H18.6665V8.33319ZM11.3333 15.3331V14.6664H8.6667V15.3331H11.3333ZM8.6667 15.9997V17.9997H11.3333V15.9997H8.6667ZM11.3333 13.9998V9.66651H8.6667V13.9998H11.3333ZM0.666832 19.333H19.3332V18.9997C19.3332 18.8164 19.1832 18.6664 18.9999 18.6664H11.6666H8.33337H1.00016C0.81683 18.6664 0.666832 18.8164 0.666832 18.9997V19.333Z" fill="#3554D1"/>
<path d="M13.0001 9H17.6667C17.85 9 18 9.15 18 9.33333V15.3332V16.6665C18 16.8499 17.85 16.9999 17.6667 16.9999H13.0001C12.8168 16.9999 12.6668 16.8499 12.6668 16.6665V15.3332V9.33333C12.6668 9.15 12.8168 9 13.0001 9ZM13.3334 16.3332H17.3333V15.6666H13.3334V16.3332ZM13.3334 14.9999H17.3333V9.66666H15.6667V11.0458C16.2417 11.1958 16.6667 11.7125 16.6667 12.3333C16.6667 12.5166 16.5167 12.6666 16.3334 12.6666H14.3334C14.1501 12.6666 14.0001 12.5166 14.0001 12.3333C14.0001 11.7125 14.4251 11.1958 15.0001 11.0458V9.66666H13.3334V14.9999ZM15.3334 11.6666C15.0875 11.6666 14.8709 11.8 14.7584 11.9999H15.9125C15.7959 11.8 15.5792 11.6666 15.3334 11.6666Z" fill="#3554D1"/>
<path d="M2.33309 9H6.99968C7.18301 9 7.33301 9.15 7.33301 9.33333V15.3332V16.6665C7.33301 16.8499 7.18301 16.9999 6.99968 16.9999H2.33309C2.14976 16.9999 1.99976 16.8499 1.99976 16.6665V15.3332V9.33333C1.99976 9.15 2.14976 9 2.33309 9ZM2.66642 16.3332H6.66635V15.6666H2.66642V16.3332ZM2.66642 14.9999H6.66635V9.66666H4.99971V11.0458C5.5747 11.1958 5.9997 11.7125 5.9997 12.3333C5.9997 12.5166 5.8497 12.6666 5.66637 12.6666H3.6664C3.48307 12.6666 3.33307 12.5166 3.33307 12.3333C3.33307 11.7125 3.75807 11.1958 4.33306 11.0458V9.66666H2.66642V14.9999ZM4.66639 11.6666C4.42056 11.6666 4.20389 11.8 4.0914 11.9999H5.24554C5.12888 11.8 4.91221 11.6666 4.66639 11.6666Z" fill="#3554D1"/>
<path d="M8.35873 2.70063C8.5004 1.92564 9.18372 1.33398 10.0004 1.33398C10.817 1.33398 11.5003 1.92564 11.642 2.70063C12.2295 2.83813 12.667 3.36728 12.667 4.00061C12.667 4.62143 12.242 5.14225 11.667 5.29225V6.3339C11.667 6.51723 11.517 6.66723 11.3337 6.66723H8.66706C8.48373 6.66723 8.33373 6.51723 8.33373 6.3339V5.29225C7.75874 5.14225 7.33375 4.62143 7.33375 4.00061C7.33375 3.37145 7.77124 2.84229 8.35873 2.70063ZM8.66706 4.66726C8.85039 4.66726 9.00039 4.81726 9.00039 5.00059V6.00057H11.0004V5.00059C11.0004 4.81726 11.1504 4.66726 11.3337 4.66726C11.7003 4.66726 12.0003 4.36727 12.0003 4.00061C12.0003 3.65478 11.7378 3.37562 11.4003 3.34228C10.9712 3.56311 10.9837 3.87978 10.992 3.94644C11.0254 4.1256 10.9045 4.29643 10.7254 4.32977C10.7045 4.33393 10.6837 4.33393 10.6629 4.33393C10.5045 4.33393 10.367 4.22144 10.3379 4.06311C10.2837 3.77978 10.367 3.19229 10.9795 2.81313C10.892 2.35063 10.4879 2.00064 10.0004 2.00064C9.45038 2.00064 9.00039 2.45063 9.00039 3.00062C9.00039 3.18395 8.85039 3.33395 8.66706 3.33395C8.3004 3.33395 8.0004 3.63395 8.0004 4.00061C8.0004 4.36727 8.3004 4.66726 8.66706 4.66726Z" fill="#3554D1"/>
</g>
<defs>
<clipPath id="clip0_797_2523">
<rect width="20" height="20" fill="white" transform="matrix(-1 0 0 1 20 0)"/>
</clipPath>
</defs>
</svg>
