<svg width="28" height="28" viewBox="0 0 28 28" fill="none" xmlns="http://www.w3.org/2000/svg">
<g clip-path="url(#clip0_950_2657)">
<path d="M27.125 8.75H24.0493C23.839 5.14369 21.0477 2.21944 17.5 1.80173V0.875C17.5 0.391781 17.1083 0 16.625 0C16.1417 0 15.75 0.391781 15.75 0.875V1.80173C12.2023 2.21944 9.41095 5.14369 9.20074 8.75H6.69364L5.17459 5.33214C5.03415 5.01616 4.72079 4.8125 4.375 4.8125H0.875C0.391727 4.8125 0 5.20428 0 5.6875C0 6.17072 0.391727 6.5625 0.875 6.5625H3.80636L5.25 9.81072V17.2812C5.25 17.7645 5.64173 18.1562 6.125 18.1562C6.5187 18.1562 6.76884 18.2219 7 18.3328V22.9005C5.29441 22.2956 3.5 23.5688 3.5 25.375C3.5 26.8224 4.67753 28 6.125 28C7.57247 28 8.75 26.8224 8.75 25.375V21.875H24.5V22.9005C22.7944 22.2956 21 23.5688 21 25.375C21 26.8224 22.1775 28 23.625 28C25.0725 28 26.25 26.8224 26.25 25.375V18.3328C26.4812 18.2219 26.7313 18.1562 27.125 18.1562C27.6083 18.1562 28 17.7645 28 17.2812V9.625C28 9.14178 27.6083 8.75 27.125 8.75ZM16.625 3.5C19.6139 3.5 22.0717 5.81755 22.2958 8.75H10.9542C11.1783 5.81755 13.6361 3.5 16.625 3.5ZM6.125 26.25C5.64255 26.25 5.25 25.8575 5.25 25.375C5.25 24.8925 5.64255 24.5 6.125 24.5C6.60745 24.5 7 24.8925 7 25.375C7 25.8575 6.60745 26.25 6.125 26.25ZM8.75 20.125V19.1614C9.00288 19.2161 9.29042 19.25 9.625 19.25C10.7511 19.25 11.3542 18.873 11.8388 18.57C12.2374 18.3208 12.5007 18.1562 13.1245 18.1562C13.7485 18.1562 14.012 18.3209 14.4108 18.5701C14.8953 18.873 15.4985 19.25 16.6245 19.25C17.7504 19.25 18.3536 18.873 18.8381 18.5701C19.2369 18.3209 19.5004 18.1562 20.1245 18.1562C20.7485 18.1562 21.012 18.3209 21.4108 18.5701C21.8955 18.873 22.4987 19.25 23.625 19.25C23.9596 19.25 24.2471 19.2161 24.5 19.1614V20.125H8.75ZM23.625 26.25C23.1425 26.25 22.75 25.8575 22.75 25.375C22.75 24.8925 23.1425 24.5 23.625 24.5C24.1075 24.5 24.5 24.8925 24.5 25.375C24.5 25.8575 24.1075 26.25 23.625 26.25ZM26.25 16.4941C24.94 16.7773 24.8055 17.5 23.625 17.5C23.0006 17.5 22.737 17.3353 22.3381 17.086C21.8535 16.7832 21.2503 16.4062 20.1245 16.4062C18.9985 16.4062 18.3953 16.7832 17.9108 17.0861C17.512 17.3353 17.2485 17.5 16.6245 17.5C16.0004 17.5 15.7369 17.3353 15.3381 17.0861C14.8536 16.7832 14.2504 16.4062 13.1245 16.4062C11.9988 16.4062 11.3958 16.7832 10.9112 17.0861C10.5125 17.3353 10.2491 17.5 9.625 17.5C8.44823 17.5 8.30922 16.7771 7 16.4941V13.5625H24.5C24.9833 13.5625 25.375 13.1707 25.375 12.6875C25.375 12.2043 24.9833 11.8125 24.5 11.8125H7V10.5H26.25V16.4941Z" fill="#3554D1"/>
</g>
<defs>
<clipPath id="clip0_950_2657">
<rect width="28" height="28" fill="white"/>
</clipPath>
</defs>
</svg>
