<svg width="20" height="20" viewBox="0 0 20 20" fill="none" xmlns="http://www.w3.org/2000/svg">
<g clip-path="url(#clip0_797_2536)">
<path d="M0 7.36523V12.0542H15.9424V7.36523H0ZM15.3308 11.4425H3.79191V10.7902H3.18031V11.4425H2.20176V9.85238H1.59016V11.4425H0.611602V7.9768H15.3308V11.4425Z" fill="#3554D1"/>
<path d="M15.3305 17.2V12.3379H14.7189V15.8036H1.30441V12.3379H0.692852V17.1789C0.304492 17.3891 0.0400391 17.8002 0.0400391 18.272C0.0400391 18.9569 0.597187 19.514 1.28203 19.514C1.96687 19.514 2.52402 18.9569 2.52402 18.272C2.52402 17.8858 2.3468 17.5402 2.06941 17.3123H2.52766V17.6416C2.89461 17.6416 3.15805 17.9245 3.15805 18.272C3.15805 18.6196 2.89461 18.9024 2.52766 18.9024V19.514C3.22082 19.514 3.76965 18.9568 3.76965 18.272C3.76965 17.8857 3.59504 17.5402 3.31848 17.3122H12.6652C12.3879 17.5402 12.2106 17.8857 12.2106 18.272C12.2106 18.9568 12.7678 19.514 13.4526 19.514C14.1375 19.514 14.6946 18.9568 14.6946 18.272C14.6946 17.8857 14.5174 17.5402 14.24 17.3122H14.7189V17.6416C15.045 17.6416 15.3493 17.9244 15.3493 18.272C15.3493 18.6196 15.045 18.9024 14.7189 18.9024V19.514C15.3713 19.514 15.9609 18.9568 15.9609 18.272C15.9609 17.8154 15.6986 17.4158 15.3305 17.2ZM1.28199 18.9024C0.934414 18.9024 0.651602 18.6196 0.651602 18.272C0.651602 17.9245 0.934414 17.6416 1.28199 17.6416C1.62957 17.6416 1.91238 17.9245 1.91238 18.272C1.91238 18.6196 1.62965 18.9024 1.28199 18.9024ZM13.4525 18.9024C13.105 18.9024 12.8221 18.6196 12.8221 18.272C12.8221 17.9245 13.105 17.6416 13.4525 17.6416C13.8001 17.6416 14.0829 17.9245 14.0829 18.272C14.0829 18.6196 13.8002 18.9024 13.4525 18.9024ZM14.7189 16.7007H1.30441V16.4152H14.7188V16.7007H14.7189Z" fill="#3554D1"/>
<path d="M16.8799 7.36523H16.2275V7.97684H16.8799V7.36523Z" fill="#3554D1"/>
<path d="M17.2041 7.35742V7.97527C17.2041 8.55457 17.6029 9.04258 18.1403 9.17918V10.4718C18.1403 10.9846 18.5575 11.4017 19.0702 11.4017C19.583 11.4017 20.0002 10.9845 20.0002 10.4718V7.35742H17.2041ZM19.0702 10.7902C18.8946 10.7902 18.7519 10.6474 18.7519 10.4718V8.60566H18.4461C18.0985 8.60566 17.8157 8.32285 17.8157 7.97527V7.96898H19.3885V10.4718C19.3885 10.6473 19.2457 10.7902 19.0702 10.7902Z" fill="#3554D1"/>
<path d="M5.05559 12.6641V13.3164H2.52762V12.6641H1.91602V13.928H5.66719V12.6641H5.05559Z" fill="#3554D1"/>
<path d="M5.05559 14.2148V14.8264H2.52762V14.2148H1.91602V15.438H5.66719V14.2148H5.05559Z" fill="#3554D1"/>
<path d="M9.41883 12.6641V13.3164H6.8909V12.6641H6.2793V13.928H10.0304V12.6641H9.41883Z" fill="#3554D1"/>
<path d="M9.41883 14.2148V14.8264H6.8909V14.2148H6.2793V15.438H10.0304V14.2148H9.41883Z" fill="#3554D1"/>
<path d="M9.05207 6.42578H2.20215V7.03738H9.05207V6.42578Z" fill="#3554D1"/>
<path d="M5.95313 3.00148V2.39062H5.34152V3.00215C3.76922 3.15871 2.53711 4.49281 2.53711 6.10102H3.14871C3.14867 4.71473 4.27141 3.59824 5.65145 3.59824C7.03148 3.59824 8.15422 4.71473 8.15422 6.10102H8.76582C8.76586 4.49004 7.52934 3.15426 5.95313 3.00148Z" fill="#3554D1"/>
<path d="M10.9506 2.10289V0.484375H10.339V2.10289C9.97601 2.22969 9.71484 2.57527 9.71484 2.9809V7.03777H10.3264V2.9809C10.3264 2.80535 10.4693 2.66258 10.6448 2.66258C10.8204 2.66258 10.9631 2.80535 10.9631 2.9809V7.03777H11.5747V2.9809C11.5747 2.57527 11.3136 2.22969 10.9506 2.10289Z" fill="#3554D1"/>
<path d="M12.2109 3.92387V5.79C12.2109 6.19879 12.4762 6.5466 12.8436 6.6709V7.03793H13.4552V6.66504C13.8138 6.53582 14.0708 6.19238 14.0708 5.78992V3.92383L12.2109 3.92387ZM13.4591 5.79004C13.4591 5.96559 13.3163 6.10836 13.1408 6.10836C12.9652 6.10836 12.8225 5.96559 12.8225 5.79004V4.53547H12.8225H13.4591V5.79004Z" fill="#3554D1"/>
<path d="M3.78516 5.77395H4.39676C4.39676 5.08078 4.97437 4.53543 5.66754 4.53543V3.92383C4.60742 3.92383 3.78516 4.75465 3.78516 5.77395Z" fill="#3554D1"/>
<path d="M14.3934 10.1777H12.2324V10.7893H14.3934V10.1777Z" fill="#3554D1"/>
</g>
<defs>
<clipPath id="clip0_797_2536">
<rect width="20" height="20" fill="white"/>
</clipPath>
</defs>
</svg>
