<svg width="29" height="29" viewBox="0 0 29 29" fill="none" xmlns="http://www.w3.org/2000/svg">
<g clip-path="url(#clip0_950_2636)">
<path d="M0.760967 8.87701C0.343841 9.15362 0.229932 9.71601 0.506543 10.1331C0.783155 10.5503 1.34554 10.6642 1.76266 10.3876L0.760967 8.87701ZM27.2386 10.3876C27.6557 10.6642 28.2181 10.5503 28.4948 10.1331C28.7714 9.71601 28.6575 9.15362 28.2403 8.87701L27.2386 10.3876ZM14.0185 2.26029C14.1608 2.1659 14.3287 2.11523 14.5006 2.11523V0.302734C13.9729 0.302734 13.4567 0.458051 13.0169 0.749669L14.0185 2.26029ZM14.5006 2.11523C14.6727 2.11523 14.8405 2.1659 14.9829 2.26029L15.9845 0.749711C15.5446 0.458093 15.0283 0.302734 14.5006 0.302734V2.11523ZM1.76266 10.3876L14.0185 2.26029L13.0169 0.749669L0.760967 8.87701L1.76266 10.3876ZM14.9829 2.26029L27.2386 10.3876L28.2403 8.87701L15.9845 0.749711L14.9829 2.26029Z" fill="#3554D1"/>
<path d="M10.5733 14.7795L9.6684 14.7295C9.66748 14.7462 9.66702 14.7628 9.66702 14.7795H10.5733ZM11.5677 19.6225L12.4725 19.6731C12.4735 19.6562 12.474 19.6394 12.474 19.6225H11.5677ZM9.86802 21.6368C9.5537 22.0262 9.61464 22.5968 10.0041 22.9111C10.3936 23.2255 10.9642 23.1645 11.2785 22.775L9.86802 21.6368ZM12.2585 12.7843C12.5709 12.3933 12.5071 11.823 12.116 11.5107C11.7249 11.1983 11.1547 11.2621 10.8423 11.6532L12.2585 12.7843ZM9.66702 14.7795C9.66702 15.748 9.96422 16.6889 10.2044 17.4686C10.4615 18.3035 10.6615 18.9768 10.6615 19.6225H12.474C12.474 18.6551 12.1767 17.7147 11.9366 16.9352C11.6796 16.1006 11.4795 15.4266 11.4795 14.7795H9.66702ZM10.6629 19.5719C10.6207 20.3264 10.3426 21.0487 9.86802 21.6368L11.2785 22.775C11.9915 21.8916 12.4091 20.8067 12.4725 19.6731L10.6629 19.5719ZM10.8423 11.6532C10.1409 12.5315 9.73041 13.6067 9.6684 14.7295L11.4781 14.8294C11.5194 14.083 11.7923 13.3682 12.2585 12.7843L10.8423 11.6532Z" fill="#3554D1"/>
<path d="M16.917 14.7792L16.0121 14.7292C16.0113 14.7459 16.0108 14.7626 16.0108 14.7792H16.917ZM17.9115 19.6222L18.8163 19.6729C18.8172 19.6561 18.8177 19.6392 18.8177 19.6222H17.9115ZM16.2117 21.6365C15.8974 22.026 15.9585 22.5966 16.3479 22.911C16.7373 23.2252 17.3079 23.1643 17.6223 22.7748L16.2117 21.6365ZM18.5972 12.7906C18.9086 12.3987 18.8435 11.8286 18.4517 11.5172C18.0599 11.2057 17.4898 11.2709 17.1784 11.6627L18.5972 12.7906ZM16.0108 14.7792C16.0108 15.7477 16.308 16.6886 16.5481 17.4684C16.8053 18.3032 17.0052 18.9765 17.0052 19.6222H18.8177C18.8177 18.6548 18.5205 17.7144 18.2804 16.9349C18.0232 16.1003 17.8233 15.4263 17.8233 14.7792H16.0108ZM17.0067 19.5716C16.9644 20.3261 16.6864 21.0484 16.2117 21.6365L17.6223 22.7748C18.3352 21.8914 18.7528 20.8064 18.8163 19.6729L17.0067 19.5716ZM17.1784 11.6627C16.4817 12.5391 16.074 13.6105 16.0121 14.7292L17.8219 14.8293C17.863 14.0855 18.1341 13.3732 18.5972 12.7906L17.1784 11.6627Z" fill="#3554D1"/>
<path d="M4.22949 27.791H3.32324C3.32324 28.2915 3.72899 28.6973 4.22949 28.6973V27.791ZM24.7712 27.791V28.6973C25.2716 28.6973 25.6774 28.2915 25.6774 27.791H24.7712ZM25.6774 7.85352C25.6774 7.35301 25.2716 6.94727 24.7712 6.94727C24.2707 6.94727 23.8649 7.35301 23.8649 7.85352H25.6774ZM3.32324 7.85352V27.791H5.13574V7.85352H3.32324ZM4.22949 28.6973H24.7712V26.8848H4.22949V28.6973ZM25.6774 27.791V7.85352H23.8649V27.791H25.6774Z" fill="#3554D1"/>
</g>
<defs>
<clipPath id="clip0_950_2636">
<rect width="29" height="29" fill="white"/>
</clipPath>
</defs>
</svg>
