<svg width="24" height="24" viewBox="0 0 24 24" fill="none" xmlns="http://www.w3.org/2000/svg">
<path d="M9 13C11.4688 13 13.5 11 13.5 8.5C13.5 6.03125 11.4688 4 9 4C6.5 4 4.5 6.03125 4.5 8.5C4.5 11 6.5 13 9 13ZM9 5.5C10.625 5.5 12 6.875 12 8.5C12 10.1562 10.625 11.5 9 11.5C7.34375 11.5 6 10.1562 6 8.5C6 6.875 7.34375 5.5 9 5.5ZM3.5 18.5V17.7188C3.5 16.2188 4.6875 15 6.1875 15C6.65625 15 7.375 15.5 9 15.5C10.3438 15.5 11.1875 15.125 11.5 15.0625C11.5625 14.5312 11.6562 14 11.8438 13.5312C10.8438 13.5 10.5 14 9 14C7.5 14 7.09375 13.5 6.1875 13.5C3.875 13.5 2 15.4062 2 17.7188V18.5C2 19.3438 2.65625 20 3.5 20H13.5312C13.0312 19.5938 12.625 19.0938 12.2812 18.5H3.5ZM17.5 11C15 11 13 13.0312 13 15.5C13 18 15 20 17.5 20C19.9688 20 22 18 22 15.5C22 13.0312 19.9688 11 17.5 11ZM19.5 15.7188C19.5 15.875 19.3438 16 19.1875 16H17.2812C17.125 16 17 15.875 17 15.7188V13.3125C17 13.1562 17.125 13 17.2812 13H17.6875C17.8438 13 18 13.1562 18 13.3125V15H19.1875C19.3438 15 19.5 15.1562 19.5 15.3125V15.7188Z" fill="#3554D1"/>
</svg>
