<svg width="30" height="30" viewBox="0 0 30 30" fill="none" xmlns="http://www.w3.org/2000/svg">
<path d="M4.6875 4.6875C3.14575 4.6875 1.875 5.95825 1.875 7.5V23.4375H4.83398C5.25147 25.0488 6.70166 26.25 8.4375 26.25C10.1733 26.25 11.6235 25.0488 12.041 23.4375H18.8965C19.314 25.0488 20.7642 26.25 22.5 26.25C24.2358 26.25 25.686 25.0488 26.1035 23.4375H29.0625V13.6523C29.0625 13.125 28.9014 12.605 28.623 12.1582L24.7852 6.00586C24.2725 5.18555 23.3789 4.6875 22.4121 4.6875H4.6875ZM4.6875 6.5625H9.375V12.1875H3.75V7.5C3.75 6.97266 4.16016 6.5625 4.6875 6.5625ZM11.25 6.5625H16.875V12.1875H11.25V6.5625ZM18.75 6.5625H22.4121C22.738 6.5625 23.031 6.72729 23.2031 7.00195L26.4258 12.1875H18.75V6.5625ZM3.75 14.0625H27.1875V15.9375H24.375V17.8125H27.1875V21.5625H26.1035C25.686 19.9512 24.2358 18.75 22.5 18.75C20.7642 18.75 19.314 19.9512 18.8965 21.5625H12.041C11.6235 19.9512 10.1733 18.75 8.4375 18.75C6.70166 18.75 5.25147 19.9512 4.83398 21.5625H3.75V14.0625ZM8.4375 20.625C9.48486 20.625 10.3125 21.4526 10.3125 22.5C10.3125 23.5474 9.48486 24.375 8.4375 24.375C7.39014 24.375 6.5625 23.5474 6.5625 22.5C6.5625 21.4526 7.39014 20.625 8.4375 20.625ZM22.5 20.625C23.5474 20.625 24.375 21.4526 24.375 22.5C24.375 23.5474 23.5474 24.375 22.5 24.375C21.4526 24.375 20.625 23.5474 20.625 22.5C20.625 21.4526 21.4526 20.625 22.5 20.625Z" fill="#3554D1"/>
</svg>
