<svg width="24" height="24" viewBox="0 0 24 24" fill="none" xmlns="http://www.w3.org/2000/svg">
<path d="M7.5 14H10.8125L7.8125 11H7.5C7.21875 11 7 11.25 7 11.5V13.5C7 13.7812 7.21875 14 7.5 14ZM14 8C13.5312 8 13.125 7.65625 13.0312 7.21875C13 7.09375 12.9062 7 12.7812 7H12.2812C12.125 7 12 7.15625 12.0312 7.3125C12.1562 8.28125 13 9 14 9C14.5 9 14.9062 9.375 15 9.8125C15 9.9375 15.125 10 15.2188 10H15.7188C15.875 10 16 9.875 15.9688 9.71875C15.8438 8.75 15 8 14 8ZM12 4C7.5625 4 4 7.59375 4 12C4 16.4375 7.5625 20 12 20C16.4062 20 20 16.4375 20 12C20 7.59375 16.4062 4 12 4ZM12 18.5C8.40625 18.5 5.5 15.5938 5.5 12C5.5 10.5 6.03125 9.09375 6.90625 7.96875L16.0312 17.0938C14.9062 17.9688 13.5 18.5 12 18.5ZM13.0312 12H16V13H14.0312L13.0312 12ZM17.0625 16.0312L15.0312 14H16.5C16.75 14 17 13.7812 17 13.5V11.5C17 11.25 16.75 11 16.5 11H12.0312L7.96875 6.9375C9.0625 6.03125 10.4688 5.5 12 5.5C15.5625 5.5 18.5 8.4375 18.5 12C18.5 13.5312 17.9688 14.9375 17.0625 16.0312Z" fill="#3554D1"/>
</svg>
