<svg width="24" height="24" viewBox="0 0 24 24" fill="none" xmlns="http://www.w3.org/2000/svg">
<path d="M20.75 10C20.0625 10.0312 18.0938 10.125 16.125 11.1562C15.2812 8.6875 13.9688 6.5625 12.3125 5.125C12.2188 5.0625 12.0938 5 12 5C11.875 5 11.75 5.0625 11.6562 5.125C10 6.5625 8.6875 8.6875 7.84375 11.1562C5.875 10.125 3.90625 10.0312 3.21875 10C3.09375 10 2.96875 10.125 2.96875 10.25C3 11.125 3.21875 14.1875 5.75 16.5C8.3125 19 10.875 19 11.9062 19H12.0625C13.0938 19 15.6562 19 18.2188 16.5C20.75 14.1875 20.9688 11.125 21 10.25C21 10.125 20.875 10 20.75 10ZM6.8125 15.4062H6.78125L6.75 15.375C5.4375 14.1875 4.875 12.7188 4.65625 11.6562C5.84375 11.8438 7.53125 12.375 8.875 13.6875V13.7188H8.90625C9.65625 14.375 10.1875 15.1875 10.5938 16.1562L11.1562 17.5C10.0938 17.4062 8.46875 17.0312 6.8125 15.4062ZM12 15.5625C11.5625 14.5938 10.9375 13.5312 9.90625 12.5938C9.65625 12.375 9.40625 12.1562 9.125 11.9688C9.78125 9.96875 10.75 8.1875 12 6.90625C13.2188 8.1875 14.1875 9.96875 14.8438 11.9688C14.5625 12.1562 14.3125 12.375 14.0625 12.5938C13.0312 13.5312 12.4062 14.5938 12 15.5625ZM17.2188 15.375L17.1875 15.4062H17.1562C15.5 17.0312 13.875 17.4062 12.8125 17.5L13.375 16.1562C13.7812 15.1875 14.3125 14.375 15.0625 13.7188H15.0938V13.6875C16.4375 12.375 18.125 11.8438 19.3125 11.6562C19.0938 12.7188 18.5312 14.1875 17.2188 15.375Z" fill="#3554D1"/>
</svg>
