<svg width="24" height="24" viewBox="0 0 24 24" fill="none" xmlns="http://www.w3.org/2000/svg">
<path d="M21.5 17.5H21C20.1562 17.5 19.5625 17.25 19.2188 16.9688C18.9688 16.6875 18.625 16.5 18.25 16.5H17.7188C17.3438 16.5 17 16.6875 16.75 16.9688C16.4062 17.25 15.8125 17.5 15 17.5C14.1562 17.5 13.5625 17.25 13.2188 16.9688C12.9688 16.6875 12.625 16.5 12.25 16.5H11.7188C11.3438 16.5 11 16.6875 10.75 16.9688C10.4062 17.25 9.8125 17.5 9 17.5C8.15625 17.5 7.5625 17.25 7.21875 16.9688C6.96875 16.6875 6.625 16.5 6.25 16.5H5.71875C5.34375 16.5 5 16.6875 4.75 16.9688C4.40625 17.25 3.8125 17.5 3 17.5H2.5C2.21875 17.5 2 17.75 2 18V18.5C2 18.7812 2.21875 19 2.5 19H3C4.1875 19 5.25 18.625 6 18.0312C6.71875 18.625 7.78125 19 9 19C10.1875 19 11.25 18.625 12 18.0312C12.7188 18.625 13.7812 19 15 19C16.1875 19 17.25 18.625 18 18.0312C18.7188 18.625 19.7812 19 21 19H21.5C21.75 19 22 18.7812 22 18.5V18C22 17.75 21.75 17.5 21.5 17.5ZM8.75 16.5V13H15.25V16.5C15.6875 16.4375 15.9688 16.3125 16.0625 16.2188C16.2812 16.0312 16.5 15.875 16.75 15.75V7.75C16.75 7.0625 17.2812 6.5 18 6.5C18.6875 6.5 19.25 7.0625 19.25 7.75V8.5C19.25 8.78125 19.4688 9 19.75 9H20.25C20.5 9 20.75 8.78125 20.75 8.5V7.75C20.75 6.25 19.5 5 18 5C16.4688 5 15.25 6.25 15.25 7.75V11.5H8.75V7.75C8.75 7.0625 9.28125 6.5 10 6.5C10.6875 6.5 11.25 7.0625 11.25 7.75V8.5C11.25 8.78125 11.4688 9 11.75 9H12.25C12.5 9 12.75 8.78125 12.75 8.5V7.75C12.75 6.25 11.5 5 10 5C8.46875 5 7.25 6.25 7.25 7.75V15.75C7.46875 15.875 7.6875 16.0312 7.90625 16.2188C8 16.3125 8.28125 16.4375 8.75 16.5Z" fill="#3554D1"/>
</svg>
