<svg width="26" height="28" viewBox="0 0 26 28" fill="none" xmlns="http://www.w3.org/2000/svg">
<path d="M15.0116 26.251H13.8747V19.3415H18.7725C20.0506 19.3415 21.0903 18.3018 21.0903 17.0238C21.0903 15.7457 20.0506 14.706 18.7725 14.706H13.8747V9.05023H25.1254C25.4435 9.05023 25.7365 8.87752 25.8906 8.59917C26.0446 8.3209 26.0355 7.98076 25.8666 7.71123C23.7053 4.26166 19.0572 1.97001 13.8668 1.73879C13.8125 1.30802 13.4455 0.974609 13 0.974609C12.5545 0.974609 12.1875 1.30802 12.1331 1.73879C6.94267 1.97001 2.29468 4.26166 0.133436 7.71123C-0.0354526 7.98076 -0.0446432 8.3209 0.109413 8.59917C0.263469 8.87752 0.556476 9.05023 0.874599 9.05023H12.1253V14.7061H7.22758C5.94954 14.7061 4.90982 15.7458 4.90982 17.0238C4.90982 18.3019 5.94954 19.3416 7.22758 19.3416H12.1254V26.2511H10.9884C10.5054 26.2511 10.1138 26.6428 10.1138 27.1258C10.1138 27.6088 10.5054 28.0004 10.9884 28.0004H15.0116C15.4947 28.0004 15.8863 27.6088 15.8863 27.1258C15.8863 26.6428 15.4947 26.251 15.0116 26.251ZM13 3.46726C17.2029 3.46726 21.0608 4.93303 23.3334 7.30093H2.66658C4.93921 4.93303 8.79708 3.46726 13 3.46726ZM6.65903 17.0238C6.65903 16.7104 6.9141 16.4553 7.22758 16.4553H18.7725C19.086 16.4553 19.3411 16.7104 19.3411 17.0238C19.3411 17.3373 19.086 17.5924 18.7725 17.5924H7.22758C6.9141 17.5923 6.65903 17.3372 6.65903 17.0238Z" fill="#3554D1"/>
<path d="M8.19711 21.1637C8.10821 20.7635 7.75323 20.4788 7.34329 20.4788H3.08695V11.2516C3.08695 10.7686 2.69531 10.377 2.2123 10.377C1.72929 10.377 1.33765 10.7686 1.33765 11.2516V21.2575L0.0757135 26.9362C-0.0291139 27.4077 0.268261 27.8749 0.739803 27.9797C0.803682 27.9939 0.86747 28.0007 0.930348 28.0007C1.33119 28.0007 1.69271 27.7233 1.78325 27.3156L2.91388 22.228H6.64181L7.77243 27.3156C7.86297 27.7233 8.22441 28.0007 8.62534 28.0007C8.68821 28.0007 8.752 27.9939 8.81588 27.9797C9.28742 27.8749 9.5848 27.4077 9.47997 26.9362L8.19711 21.1637Z" fill="#3554D1"/>
<path d="M24.6614 21.2575V11.2516C24.6614 10.7686 24.2697 10.377 23.7867 10.377C23.3037 10.377 22.9121 10.7686 22.9121 11.2516V20.4788H18.6557C18.2458 20.4788 17.8908 20.7634 17.8018 21.1637L16.5191 26.9361C16.4142 27.4076 16.7116 27.8748 17.1832 27.9796C17.247 27.9938 17.3108 28.0006 17.3737 28.0006C17.7745 28.0006 18.1361 27.7232 18.2266 27.3155L19.3572 22.2279H23.0852L24.2158 27.3155C24.3063 27.7232 24.6678 28.0006 25.0687 28.0006C25.1316 28.0006 25.1954 27.9938 25.2592 27.9796C25.7308 27.8748 26.0282 27.4076 25.9233 26.9361L24.6614 21.2575Z" fill="#3554D1"/>
</svg>
