<svg width="24" height="24" viewBox="0 0 24 24" fill="none" xmlns="http://www.w3.org/2000/svg">
<path d="M20.5312 16.5C19.75 16.4375 19 16.125 18.4688 15.6875C18.1875 15.4688 17.7812 15.4688 17.5 15.7188C16.875 16.2188 15.9375 16.5312 15 16.5312C14.0312 16.5312 13.0938 16.2188 12.4688 15.6875C12.1875 15.4688 11.7812 15.4688 11.5 15.7188C10.875 16.2188 9.9375 16.5312 9 16.5312C8.03125 16.5312 7.09375 16.2188 6.46875 15.6875C6.1875 15.4688 5.78125 15.4688 5.5 15.7188C4.96875 16.1562 4.25 16.4375 3.4375 16.5C3.1875 16.5312 3 16.75 3 17V17.5C3 17.7812 3.21875 18.0312 3.5 18C4.40625 17.9375 5.28125 17.6562 6 17.2188C7.6875 18.2812 10.2812 18.25 12 17.2188C13.6875 18.2812 16.2812 18.25 18 17.2188C18.6875 17.6562 19.5625 17.9375 20.4688 18C20.75 18.0312 20.9688 17.7812 20.9688 17.5V17C21 16.75 20.7812 16.5312 20.5312 16.5ZM20.5312 7C19.75 6.90625 19 6.625 18.4688 6.1875C18.1875 5.96875 17.7812 5.96875 17.5 6.1875C16.875 6.71875 15.9375 7 15 7C14.0312 7 13.0938 6.6875 12.4688 6.1875C12.1875 5.96875 11.7812 5.96875 11.5 6.1875C10.875 6.71875 9.9375 7 9 7C8.03125 7 7.09375 6.6875 6.46875 6.1875C6.1875 5.96875 5.78125 5.96875 5.5 6.1875C4.96875 6.625 4.25 6.90625 3.4375 7C3.1875 7 3 7.21875 3 7.46875V8C3 8.28125 3.21875 8.5 3.5 8.5C4.40625 8.40625 5.28125 8.125 6 7.6875C7.6875 8.75 10.2812 8.75 12 7.6875C13.6875 8.75 16.2812 8.75 18 7.6875C18.6875 8.125 19.5625 8.40625 20.4688 8.5C20.75 8.5 20.9688 8.28125 20.9688 8V7.46875C21 7.21875 20.7812 7 20.5312 7ZM20.5312 11.75C19.75 11.6562 19 11.375 18.4688 10.9375C18.1875 10.7188 17.7812 10.7188 17.5 10.9375C16.875 11.4688 15.9375 11.75 15 11.75C14.0312 11.75 13.0938 11.4375 12.4688 10.9375C12.1875 10.7188 11.7812 10.7188 11.5 10.9375C10.875 11.4688 9.9375 11.75 9 11.75C8.03125 11.75 7.09375 11.4375 6.46875 10.9375C6.1875 10.7188 5.78125 10.7188 5.5 10.9375C4.96875 11.375 4.25 11.6562 3.4375 11.75C3.1875 11.75 3 11.9688 3 12.2188V12.75C3 13.0312 3.21875 13.25 3.5 13.25C4.40625 13.1562 5.28125 12.875 6 12.4375C7.6875 13.5 10.2812 13.5 12 12.4375C13.6875 13.5 16.2812 13.5 18 12.4375C18.6875 12.875 19.5625 13.1562 20.4688 13.25C20.75 13.25 20.9688 13.0312 20.9688 12.75V12.2188C21 11.9688 20.7812 11.75 20.5312 11.75Z" fill="#3554D1"/>
</svg>
