<svg width="22" height="17" viewBox="0 0 22 17" fill="none" xmlns="http://www.w3.org/2000/svg">
<path fill-rule="evenodd" clip-rule="evenodd" d="M8.47827 14.875C8.47827 15.9375 9.43891 17 10.6249 17C11.811 17 12.7716 15.9375 12.7716 14.875C12.7716 11.6876 8.47827 11.6876 8.47827 14.875ZM6.07078 10.3669L7.58955 11.8704C9.26288 10.2129 11.987 10.2129 13.6603 11.8704L15.1791 10.3669C12.6632 7.87755 8.58668 7.87755 6.07078 10.3669ZM0 4.35643L1.5177 5.8599C6.53983 0.888574 14.7101 0.888574 19.7322 5.8599L21.2499 4.35643C15.382 -1.45214 5.86792 -1.45214 0 4.35643ZM18.2145 7.36233L16.6968 8.8645C13.3491 5.55064 7.90082 5.55064 4.55309 8.8645L3.03539 7.36233C7.22676 3.21336 14.0231 3.21336 18.2145 7.36233Z" fill="#3554D1"/>
</svg>
