<svg width="138" height="92" viewBox="0 0 138 92" fill="none" xmlns="http://www.w3.org/2000/svg">
<path d="M132.25 0H21.0833C17.9077 0 15.3333 2.57432 15.3333 5.75V7.66667H5.75C2.57432 7.66667 0 10.241 0 13.4167V78.5833C0 85.9932 6.00683 92 13.4167 92H126.5C132.851 92 138 86.8514 138 80.5V5.75C138 2.57432 135.426 0 132.25 0ZM13.4167 80.5C12.9083 80.5 12.4208 80.2981 12.0614 79.9386C11.7019 79.5792 11.5 79.0917 11.5 78.5833V19.1667H15.3333V78.5833C15.3333 79.0917 15.1314 79.5792 14.772 79.9386C14.4125 80.2981 13.925 80.5 13.4167 80.5ZM69.9583 76.6667H33.5417C31.9539 76.6667 30.6667 75.3794 30.6667 73.7917V71.875C30.6667 70.2873 31.9539 69 33.5417 69H69.9583C71.5461 69 72.8333 70.2873 72.8333 71.875V73.7917C72.8333 75.3794 71.5461 76.6667 69.9583 76.6667ZM119.792 76.6667H83.375C81.7873 76.6667 80.5 75.3794 80.5 73.7917V71.875C80.5 70.2873 81.7873 69 83.375 69H119.792C121.379 69 122.667 70.2873 122.667 71.875V73.7917C122.667 75.3794 121.379 76.6667 119.792 76.6667ZM69.9583 53.6667H33.5417C31.9539 53.6667 30.6667 52.3794 30.6667 50.7917V48.875C30.6667 47.2873 31.9539 46 33.5417 46H69.9583C71.5461 46 72.8333 47.2873 72.8333 48.875V50.7917C72.8333 52.3794 71.5461 53.6667 69.9583 53.6667ZM119.792 53.6667H83.375C81.7873 53.6667 80.5 52.3794 80.5 50.7917V48.875C80.5 47.2873 81.7873 46 83.375 46H119.792C121.379 46 122.667 47.2873 122.667 48.875V50.7917C122.667 52.3794 121.379 53.6667 119.792 53.6667ZM119.792 30.6667H33.5417C31.9539 30.6667 30.6667 29.3794 30.6667 27.7917V18.2083C30.6667 16.6206 31.9539 15.3333 33.5417 15.3333H119.792C121.379 15.3333 122.667 16.6206 122.667 18.2083V27.7917C122.667 29.3794 121.379 30.6667 119.792 30.6667Z" fill="white"/>
</svg>
